<svg xmlns="http://www.w3.org/2000/svg" viewBox="0 0 612 792">
	<title>Information</title>
	<path fill="#666" d="M200 87.3c0 24.9 12.5 43.7 31.2 62.4s49.9 24.9 81.1 24.9 56.1-6.2 74.8-24.9 31.2-37.4 31.2-62.4-12.5-43.7-31.2-62.4S343.4 0 312.2 0s-56.1 6.2-81.1 24.9C212.5 43.7 200 62.4 200 87.3zM137.6 792h336.8v-24.9c-24.9-6.2-43.7-12.5-49.9-18.7-6.2-6.2-12.5-24.9-12.5-49.9V261.9H137.6v24.9c31.2 12.5 49.9 18.7 56.1 24.9 12.5 6.2 12.5 24.9 12.5 49.9v336.8c0 24.9-6.2 43.7-18.7 56.1-6.2 6.2-24.9 12.5-49.9 12.5v25z"/>
</svg>